<?xml version="1.0" standalone="no"?>
<!DOCTYPE svg PUBLIC "-//W3C//DTD SVG 20010904//EN"
 "http://www.w3.org/TR/2001/REC-SVG-20010904/DTD/svg10.dtd">
<svg version="1.0" xmlns="http://www.w3.org/2000/svg"
 width="512.000000pt" height="512.000000pt" viewBox="0 0 512.000000 512.000000"
 preserveAspectRatio="xMidYMid meet">
<metadata>
Created by potrace 1.11, written by Peter Selinger 2001-2013
</metadata>
<g transform="translate(0.000000,512.000000) scale(0.100000,-0.100000)"
fill="#000000" stroke="none">
<path d="M560 5110 c-216 -39 -408 -190 -499 -393 -65 -144 -61 -1 -58 -2182
l2 -1980 22 -67 c63 -195 195 -346 377 -428 136 -62 13 -59 2181 -57 l1980 2
80 27 c109 38 196 91 274 169 79 79 132 165 169 274 l27 80 2 1980 c3 2068 3
2041 -36 2130 -5 11 -15 35 -22 53 -20 55 -83 146 -139 201 -65 64 -123 105
-204 141 -135 61 -18 58 -2156 58 -1075 0 -1975 -4 -2000 -8z"/>
</g>
</svg>
