<?xml version="1.0" encoding="ISO-8859-1" ?>
<!DOCTYPE svg PUBLIC "-//W3C//DTD SVG 1.0//EN" "http://www.w3.org/TR/2001/REC-SVG-20010904/DTD/svg10.dtd">

<!--?xml version="1.0" encoding="UTF-8"?-->
<svg width="100%" height="100%" viewBox="-15 -15 135 130">
   <g style="stroke:black; stroke-width:0.25">
      <line x1="0" y1="100" x2="100" y2="100"/>
      <line x1="0" y1="0" x2="0" y2="100"/>
      <line x1="0" y1="100" x2="0" y2="101"/>
      <line x1="10" y1="100" x2="10" y2="101"/>
      <line x1="20" y1="100" x2="20" y2="101"/>
      <line x1="30" y1="100" x2="30" y2="101"/>
      <line x1="40" y1="100" x2="40" y2="101"/>
      <line x1="50" y1="100" x2="50" y2="101"/>
      <line x1="60" y1="100" x2="60" y2="101"/>
      <line x1="70" y1="100" x2="70" y2="101"/>
      <line x1="80" y1="100" x2="80" y2="101"/>
      <line x1="90" y1="100" x2="90" y2="101"/>
      <line x1="100" y1="100" x2="100" y2="101"/>
      <line x1="0" y1="100" x2="-1" y2="100"/>
      <line x1="0" y1="90" x2="-1" y2="90"/>
      <line x1="0" y1="80" x2="-1" y2="80"/>
      <line x1="0" y1="70" x2="-1" y2="70"/>
      <line x1="0" y1="60" x2="-1" y2="60"/>
      <line x1="0" y1="50" x2="-1" y2="50"/>
      <line x1="0" y1="40" x2="-1" y2="40"/>
      <line x1="0" y1="30" x2="-1" y2="30"/>
      <line x1="0" y1="20" x2="-1" y2="20"/>
      <line x1="0" y1="10" x2="-1" y2="10"/>
      <line x1="0" y1="0" x2="-1" y2="0"/>
   </g>
   <g style="font-size:3">
      <text x="103" y="103" style="text-anchor:start">power_hp</text>
      <g style="text-anchor:middle">
         <text x="0" y="104">0</text>
         <text x="10" y="104">100</text>
         <text x="20" y="104">200</text>
         <text x="30" y="104">300</text>
         <text x="40" y="104">400</text>
         <text x="50" y="104">500</text>
         <text x="60" y="104">600</text>
         <text x="70" y="104">700</text>
         <text x="80" y="104">800</text>
         <text x="90" y="104">900</text>
         <text x="100" y="104">1000</text>
      </g>
      <text x="-1" y="-5" style="text-anchor:middle">base_price 000s</text>
      <g style="text-anchor:end">
         <text x="-1" y="100">0</text>
         <text x="-1" y="90">100</text>
         <text x="-1" y="80">200</text>
         <text x="-1" y="70">300</text>
         <text x="-1" y="60">400</text>
         <text x="-1" y="50">500</text>
         <text x="-1" y="40">600</text>
         <text x="-1" y="30">700</text>
         <text x="-1" y="20">800</text>
         <text x="-1" y="10">900</text>
         <text x="-1" y="0">1000</text>
      </g>
   </g>
   <text x="50" y="-5" style="font-size:5; text-anchor:middle">Aircraft Price against Power</text>
   <g style="fill:red; font-size:3">
      <text x="51" y="5">Price Against Power Civilian</text>
   </g>
   <g style="stroke:red; stroke-width:0.25">
      <line x1="63" y1="76.4" x2="57" y2="76.4"/>
      <line x1="60" y1="78.4" x2="60" y2="74.4"/>
      <line x1="19" y1="83.9" x2="13" y2="83.9"/>
      <line x1="16" y1="85.9" x2="16" y2="81.9"/>
      <line x1="28" y1="64" x2="22" y2="64"/>
      <line x1="25" y1="66" x2="25" y2="62"/>
      <line x1="29" y1="81.7" x2="23" y2="81.7"/>
      <line x1="26" y1="83.7" x2="26" y2="79.7"/>
      <line x1="34" y1="63.5" x2="28" y2="63.5"/>
      <line x1="31" y1="65.5" x2="31" y2="61.5"/>
      <line x1="23" y1="83.3" x2="17" y2="83.3"/>
      <line x1="20" y1="85.3" x2="20" y2="81.3"/>
      <line x1="14.600000000000001" y1="93" x2="8.600000000000001" y2="93"/>
      <line x1="11.600000000000001" y1="95" x2="11.600000000000001" y2="91"/>
      <line x1="26.5" y1="86" x2="20.5" y2="86"/>
      <line x1="23.5" y1="88" x2="23.5" y2="84"/>
      <line x1="14.5" y1="88" x2="8.5" y2="88"/>
      <line x1="11.5" y1="90" x2="11.5" y2="86"/>
      <line x1="21" y1="89.2" x2="15" y2="89.2"/>
      <line x1="18" y1="91.2" x2="18" y2="87.2"/>
      <line x1="19" y1="92.1" x2="13" y2="92.1"/>
      <line x1="16" y1="94.1" x2="16" y2="90.1"/>
      <line x1="26.5" y1="71.8" x2="20.5" y2="71.8"/>
      <line x1="23.5" y1="73.8" x2="23.5" y2="69.8"/>
      <line x1="19" y1="88.5" x2="13" y2="88.5"/>
      <line x1="16" y1="90.5" x2="16" y2="86.5"/>
      <line x1="34" y1="71.4" x2="28" y2="71.4"/>
      <line x1="31" y1="73.4" x2="31" y2="69.4"/>
      <line x1="38" y1="13" x2="32" y2="13"/>
      <line x1="35" y1="15" x2="35" y2="11"/>
      <line x1="30" y1="49.5" x2="24" y2="49.5"/>
      <line x1="27" y1="51.5" x2="27" y2="47.5"/>
      <line x1="33" y1="57.4" x2="27" y2="57.4"/>
      <line x1="30" y1="59.4" x2="30" y2="55.4"/>
      <line x1="21" y1="88.9" x2="15" y2="88.9"/>
      <line x1="18" y1="90.9" x2="18" y2="86.9"/>
      <line x1="27.400000000000002" y1="64" x2="21.400000000000002" y2="64"/>
      <line x1="24.400000000000002" y1="66" x2="24.400000000000002" y2="62"/>
      <line x1="29" y1="54.9" x2="23" y2="54.9"/>
      <line x1="26" y1="56.9" x2="26" y2="52.9"/>
      <line x1="34" y1="72.3" x2="28" y2="72.3"/>
      <line x1="31" y1="74.3" x2="31" y2="70.3"/>
      <line x1="28" y1="31.700000000000003" x2="22" y2="31.700000000000003"/>
      <line x1="25" y1="33.7" x2="25" y2="29.700000000000003"/>
      <line x1="23" y1="80.3" x2="17" y2="80.3"/>
      <line x1="20" y1="82.3" x2="20" y2="78.3"/>
      <line x1="23" y1="92.6" x2="17" y2="92.6"/>
      <line x1="20" y1="94.6" x2="20" y2="90.6"/>
      <line x1="15.5" y1="86" x2="9.5" y2="86"/>
      <line x1="12.5" y1="88" x2="12.5" y2="84"/>
      <line x1="33" y1="76" x2="27" y2="76"/>
      <line x1="30" y1="78" x2="30" y2="74"/>
      <line x1="19" y1="89" x2="13" y2="89"/>
      <line x1="16" y1="91" x2="16" y2="87"/>
      <line x1="21" y1="77.6" x2="15" y2="77.6"/>
      <line x1="18" y1="79.6" x2="18" y2="75.6"/>
      <line x1="23" y1="82.5" x2="17" y2="82.5"/>
      <line x1="20" y1="84.5" x2="20" y2="80.5"/>
      <line x1="21" y1="86.5" x2="15" y2="86.5"/>
      <line x1="18" y1="88.5" x2="18" y2="84.5"/>
      <line x1="33" y1="40.4" x2="27" y2="40.4"/>
      <line x1="30" y1="42.4" x2="30" y2="38.4"/>
      <line x1="19" y1="85.5" x2="13" y2="85.5"/>
      <line x1="16" y1="87.5" x2="16" y2="83.5"/>
      <line x1="30" y1="25.39999999999999" x2="24" y2="25.39999999999999"/>
      <line x1="27" y1="27.39999999999999" x2="27" y2="23.39999999999999"/>
      <line x1="23" y1="75" x2="17" y2="75"/>
      <line x1="20" y1="77" x2="20" y2="73"/>
      <line x1="21" y1="81.1" x2="15" y2="81.1"/>
      <line x1="18" y1="83.1" x2="18" y2="79.1"/>
      <line x1="33" y1="83.5" x2="27" y2="83.5"/>
      <line x1="30" y1="85.5" x2="30" y2="81.5"/>
      <line x1="21" y1="87.6" x2="15" y2="87.6"/>
      <line x1="18" y1="89.6" x2="18" y2="85.6"/>
      <line x1="19" y1="81" x2="13" y2="81"/>
      <line x1="16" y1="83" x2="16" y2="79"/>
      <line x1="19" y1="91.9" x2="13" y2="91.9"/>
      <line x1="16" y1="93.9" x2="16" y2="89.9"/>
      <line x1="15.5" y1="87.6" x2="9.5" y2="87.6"/>
      <line x1="12.5" y1="89.6" x2="12.5" y2="85.6"/>
      <line x1="21" y1="87.7" x2="15" y2="87.7"/>
      <line x1="18" y1="89.7" x2="18" y2="85.7"/>
      <line x1="38" y1="7.5" x2="32" y2="7.5"/>
      <line x1="35" y1="9.5" x2="35" y2="5.5"/>
      <line x1="21" y1="84.5" x2="15" y2="84.5"/>
      <line x1="18" y1="86.5" x2="18" y2="82.5"/>
      <line x1="21" y1="88.4" x2="15" y2="88.4"/>
      <line x1="18" y1="90.4" x2="18" y2="86.4"/>
      <line x1="21.5" y1="85.7" x2="15.5" y2="85.7"/>
      <line x1="18.5" y1="87.7" x2="18.5" y2="83.7"/>
      <line x1="26.5" y1="85.4" x2="20.5" y2="85.4"/>
      <line x1="23.5" y1="87.4" x2="23.5" y2="83.4"/>
      <line x1="29" y1="83.5" x2="23" y2="83.5"/>
      <line x1="26" y1="85.5" x2="26" y2="81.5"/>
      <line x1="23" y1="78" x2="17" y2="78"/>
      <line x1="20" y1="80" x2="20" y2="76"/>
      <line x1="33" y1="74.2" x2="27" y2="74.2"/>
      <line x1="30" y1="76.2" x2="30" y2="72.2"/>
      <line x1="29" y1="80" x2="23" y2="80"/>
      <line x1="26" y1="82" x2="26" y2="78"/>
      <line x1="33" y1="57.3" x2="27" y2="57.3"/>
      <line x1="30" y1="59.3" x2="30" y2="55.3"/>
      <line x1="19" y1="87.8" x2="13" y2="87.8"/>
      <line x1="16" y1="89.8" x2="16" y2="85.8"/>
      <line x1="38" y1="69.4" x2="32" y2="69.4"/>
      <line x1="35" y1="71.4" x2="35" y2="67.4"/>
      <line x1="34" y1="67.19999999999999" x2="28" y2="67.19999999999999"/>
      <line x1="31" y1="69.19999999999999" x2="31" y2="65.19999999999999"/>
      <line x1="33" y1="71.9" x2="27" y2="71.9"/>
      <line x1="30" y1="73.9" x2="30" y2="69.9"/>
      <line x1="21" y1="88.8" x2="15" y2="88.8"/>
      <line x1="18" y1="90.8" x2="18" y2="86.8"/>
      <line x1="26" y1="79.3" x2="20" y2="79.3"/>
      <line x1="23" y1="81.3" x2="23" y2="77.3"/>
      <line x1="26.5" y1="84.7" x2="20.5" y2="84.7"/>
      <line x1="23.5" y1="86.7" x2="23.5" y2="82.7"/>
      <line x1="33" y1="31.39999999999999" x2="27" y2="31.39999999999999"/>
      <line x1="30" y1="33.39999999999999" x2="30" y2="29.39999999999999"/>
      <line x1="31" y1="52.699999999999996" x2="25" y2="52.699999999999996"/>
      <line x1="28" y1="54.699999999999996" x2="28" y2="50.699999999999996"/>
      <line x1="21" y1="81.9" x2="15" y2="81.9"/>
      <line x1="18" y1="83.9" x2="18" y2="79.9"/>
      <line x1="33" y1="50.199999999999996" x2="27" y2="50.199999999999996"/>
      <line x1="30" y1="52.199999999999996" x2="30" y2="48.199999999999996"/>
      <line x1="29" y1="83.6" x2="23" y2="83.6"/>
      <line x1="26" y1="85.6" x2="26" y2="81.6"/>
      <line x1="21" y1="89" x2="15" y2="89"/>
      <line x1="18" y1="91" x2="18" y2="87"/>
      <line x1="21" y1="89.5" x2="15" y2="89.5"/>
      <line x1="18" y1="91.5" x2="18" y2="87.5"/>
      <line x1="21" y1="85.4" x2="15" y2="85.4"/>
      <line x1="18" y1="87.4" x2="18" y2="83.4"/>
      <line x1="33" y1="73.7" x2="27" y2="73.7"/>
      <line x1="30" y1="75.7" x2="30" y2="71.7"/>
      <line x1="33" y1="74.9" x2="27" y2="74.9"/>
      <line x1="30" y1="76.9" x2="30" y2="72.9"/>
      <line x1="30" y1="48.599999999999994" x2="24" y2="48.599999999999994"/>
      <line x1="27" y1="50.599999999999994" x2="27" y2="46.599999999999994"/>
      <line x1="33" y1="69.5" x2="27" y2="69.5"/>
      <line x1="30" y1="71.5" x2="30" y2="67.5"/>
      <line x1="29" y1="82.8" x2="23" y2="82.8"/>
      <line x1="26" y1="84.8" x2="26" y2="80.8"/>
      <line x1="23" y1="80.7" x2="17" y2="80.7"/>
      <line x1="20" y1="82.7" x2="20" y2="78.7"/>
      <line x1="14.8" y1="93" x2="8.8" y2="93"/>
      <line x1="11.8" y1="95" x2="11.8" y2="91"/>
   </g>
   <g style="fill:blue; font-size:3">
      <text x="51" y="10">Price Against Power Military test data only</text>
   </g>
   <g style="stroke:blue; stroke-width:0.25">
      <line x1="41" y1="75.4" x2="35" y2="75.4"/>
      <line x1="38" y1="77.4" x2="38" y2="73.4"/>
      <line x1="63" y1="63.699999999999996" x2="57" y2="63.699999999999996"/>
      <line x1="60" y1="65.69999999999999" x2="60" y2="61.699999999999996"/>
      <line x1="73" y1="54.9" x2="67" y2="54.9"/>
      <line x1="70" y1="56.9" x2="70" y2="52.9"/>
   </g>
</svg>
